<mxfile host="app.diagrams.net" modified="2023-07-07T18:48:46.585Z" agent="Mozilla/5.0 (Macintosh; Intel Mac OS X 10_15_7) AppleWebKit/605.1.15 (KHTML, like Gecko) Version/16.5.1 Safari/605.1.15" version="21.6.1" etag="FdZYPKh87JL80JUlsBN5" type="github">
  <diagram name="Page-1" id="H2tO_M3LDvVw8NSFoMP5">
    <mxGraphModel>
      <root>
        <mxCell id="0" />
        <mxCell id="1" parent="0" />
      </root>
    </mxGraphModel>
  </diagram>
</mxfile>
